<svg aria-hidden="true" style="position: absolute; width: 0; height: 0; overflow: hidden;" version="1.1" xmlns="http://www.w3.org/2000/svg" xmlns:xlink="http://www.w3.org/1999/xlink">
<defs>
<symbol id="icon-accessibility" viewBox="0 0 32 32">
<path fill="#fff" style="fill: var(--color1, #fff)" d="M17.974 6.194c1.091 1.091 1.091 2.86 0 3.951s-2.86 1.091-3.951 0c-1.091-1.091-1.091-2.86 0-3.951s2.86-1.091 3.951 0z"></path>
<path fill="#fff" style="fill: var(--color1, #fff)" d="M24.188 11.317c-2.463 0.477-5.295 0.75-8.19 0.75s-5.728-0.273-8.472-0.795l0.281 0.044c-0.048-0.010-0.103-0.016-0.16-0.016-0.407 0-0.746 0.294-0.815 0.681l-0.001 0.005c-0.009 0.047-0.015 0.1-0.015 0.155 0 0.408 0.293 0.747 0.68 0.819l0.005 0.001c1.572 0.307 3.475 0.549 5.409 0.674l0.137 0.007c0.694 0.050 1.239 0.625 1.239 1.328 0 0.057-0.004 0.112-0.010 0.167l0.001-0.007-0.163 1.397c-0.274 2.389-0.81 4.566-1.586 6.625l0.063-0.189-1.016 2.717c-0.034 0.087-0.053 0.189-0.053 0.295 0 0.463 0.375 0.838 0.838 0.838 0.357 0 0.662-0.223 0.783-0.538l0.002-0.006 0.249-0.508c0.813-1.732 1.57-3.505 2.26-5.298 0.056-0.142 0.192-0.24 0.35-0.24s0.294 0.098 0.35 0.238l0.001 0.003c0.691 1.793 1.448 3.556 2.26 5.303l0.259 0.554c0.128 0.297 0.415 0.502 0.751 0.508h0.001c0.104-0.001 0.204-0.021 0.295-0.058l-0.005 0.002c0.329-0.116 0.56-0.425 0.56-0.787 0-0.104-0.019-0.204-0.054-0.296l0.002 0.006-1.016-2.717c-0.711-1.869-1.247-4.046-1.511-6.305l-0.012-0.13-0.157-1.407c-0.006-0.047-0.009-0.101-0.009-0.155 0-0.701 0.545-1.276 1.234-1.323l0.004-0c2.056-0.131 3.943-0.369 5.792-0.716l-0.291 0.045c0.412-0.072 0.722-0.422 0.731-0.847l0-0.001c0-0 0-0 0-0.001 0-0.463-0.375-0.838-0.838-0.838-0.058 0-0.114 0.006-0.168 0.017l0.005-0.001z"></path>
<path fill="#fff" opacity="0.85" style="fill: var(--color1, #fff)" d="M16 0c-8.837 0-16 7.163-16 16s7.163 16 16 16c8.837 0 16-7.163 16-16v0c-0.009-8.833-7.167-15.991-15.999-16h-0.001zM16 30.476c-7.995 0-14.476-6.481-14.476-14.476s6.481-14.476 14.476-14.476c7.995 0 14.476 6.481 14.476 14.476v0c-0.012 7.99-6.486 14.465-14.475 14.476h-0.001z"></path>
</symbol>
<symbol id="icon-xmark-solid" viewBox="0 0 20 32">
<path d="M19.413 9.412c0.781-0.781 0.781-2.050 0-2.831s-2.050-0.781-2.831 0l-6.581 6.587-6.588-6.581c-0.781-0.781-2.050-0.781-2.831 0s-0.781 2.050 0 2.831l6.588 6.581-6.581 6.587c-0.781 0.781-0.781 2.050 0 2.831s2.050 0.781 2.831 0l6.581-6.588 6.587 6.581c0.781 0.781 2.050 0.781 2.831 0s0.781-2.050 0-2.831l-6.588-6.581 6.581-6.588z"></path>
</symbol>

<symbol id="icon-adna_profile" viewBox="0 0 32 32">
<path d="M16 28.8c-7.058 0-12.8-5.742-12.8-12.8s5.742-12.8 12.8-12.8c7.058 0 12.8 5.742 12.8 12.8s-5.742 12.8-12.8 12.8zM16 4.705c-6.229 0-11.295 5.066-11.295 11.295s5.066 11.295 11.295 11.295c6.229 0 11.295-5.066 11.295-11.295s-5.066-11.295-11.295-11.295z"></path>
<path d="M16 24.8c-4.853 0-8.8-3.949-8.8-8.8 0-4.853 3.947-8.8 8.8-8.8 4.851 0 8.8 3.947 8.8 8.8 0 4.851-3.949 8.8-8.8 8.8zM16 8.8c-3.97 0-7.2 3.23-7.2 7.2s3.23 7.2 7.2 7.2c3.97 0 7.2-3.23 7.2-7.2s-3.23-7.2-7.2-7.2z"></path>
<path d="M16 20.8c-2.646 0-4.8-2.154-4.8-4.8s2.154-4.8 4.8-4.8c2.646 0 4.8 2.154 4.8 4.8s-2.154 4.8-4.8 4.8zM16 12.8c-1.765 0-3.2 1.435-3.2 3.2s1.435 3.2 3.2 3.2c1.765 0 3.2-1.435 3.2-3.2s-1.435-3.2-3.2-3.2z"></path>
</symbol>
<symbol id="icon-arrow" viewBox="0 0 85 32">
<path fill="#666" style="fill: var(--color1, #666)" d="M42.668 32l41.569-32h-83.138l41.569 32z"></path>
</symbol>
<symbol id="icon-bigfont" viewBox="0 0 43 32">
<path d="M15.156 27.263v-12.49h6.482c0.757 0 1.371-0.614 1.371-1.37s-0.614-1.371-1.371-1.371h-16.002c-0.757 0-1.37 0.614-1.37 1.371s0.614 1.37 1.37 1.37h6.445v12.49c0 0.849 0.688 1.537 1.537 1.537s1.537-0.688 1.537-1.537zM30.311 26.369v-20.427h6.482c0.757 0 1.371-0.614 1.371-1.371s-0.614-1.37-1.371-1.37h-16.002c-0.757 0-1.37 0.614-1.37 1.37s0.614 1.371 1.37 1.371h6.445v20.427c0 0.849 0.688 1.537 1.537 1.537s1.537-0.688 1.537-1.537z"></path>
</symbol>
<symbol id="icon-blackcursor" viewBox="0 0 21 32">
<path d="M4.114 0l-4.114 26.082 6.559-3.145 2.429 9.063 6.906-1.85-2.429-9.063 7.252-0.555-16.603-20.531z"></path>
</symbol>
<symbol id="icon-blind_profile" viewBox="0 0 33 32">
<path d="M13.123 32c-0.863 0-1.079-0.539-1.582-15.676-0.144-4.638-0.324-10.067-0.575-13.124-0.18 2.265-0.324 5.789-0.431 8.845-0.467 12.189-0.719 13.339-1.726 13.339-1.115 0-1.294-1.834-1.654-7.515-0.108-1.978-0.288-4.782-0.575-5.897-0.252 0.791-0.431 2.445-0.575 3.524-0.324 2.984-0.539 4.458-1.546 4.458-0.863 0-1.222-0.611-1.438-1.007s-0.36-0.575-0.719-0.575l-1.762-0c-0.288 0-0.539-0.252-0.539-0.539s0.252-0.539 0.539-0.539h1.798c1.007 0 1.402 0.647 1.654 1.115 0.18 0.288 0.252 0.431 0.36 0.467 0.252-0.467 0.468-2.265 0.611-3.452 0.36-3.164 0.611-4.818 1.69-4.818 1.043 0 1.259 1.762 1.582 7.263 0.108 1.834 0.252 4.386 0.503 5.717 0.36-2.157 0.539-7.479 0.683-11.541 0.431-11.146 0.611-12.045 1.546-12.045 0.899 0 1.114 0.611 1.654 16.288 0.144 4.279 0.324 9.312 0.539 12.261 0.18-2.409 0.36-6.040 0.467-9.204 0.503-12.045 0.719-13.088 1.654-13.088s1.151 1.151 1.51 8.917c0.144 2.769 0.324 6.688 0.647 8.306 0.216-1.115 0.36-3.38 0.468-4.998 0.324-5.106 0.539-6.867 1.654-6.867 1.186 0 1.33 1.977 1.546 4.71 0.108 1.402 0.252 3.703 0.647 4.063 0.36-0.072 0.503-1.294 0.611-2.013 0.18-1.259 0.36-2.661 1.51-2.661 1.079 0 1.402 0.827 1.654 1.402 0.216 0.539 0.324 0.647 0.503 0.647 0.431 0 0.575-0.18 0.827-0.468s0.611-0.719 1.33-0.719c0.611 0 0.971 0.216 1.222 0.396 0.216 0.144 0.431 0.288 0.935 0.288h2.157c0.288 0 0.539 0.252 0.539 0.539s-0.252 0.539-0.539 0.539h-2.157c-0.863 0-1.259-0.288-1.546-0.468-0.216-0.144-0.324-0.216-0.611-0.216-0.18 0-0.288 0.072-0.539 0.36-0.288 0.324-0.719 0.827-1.618 0.827-0.971 0-1.294-0.791-1.51-1.33-0.252-0.575-0.324-0.719-0.647-0.719-0.216 0.144-0.36 1.187-0.431 1.726-0.18 1.33-0.396 2.948-1.726 2.948s-1.51-2.229-1.69-5.070c-0.072-1.079-0.216-2.769-0.431-3.452-0.324 0.971-0.503 3.739-0.611 5.645-0.288 4.89-0.468 6.616-1.546 6.616-1.043 0-1.294-1.474-1.726-9.924-0.108-2.085-0.252-4.71-0.431-6.4-0.252 2.445-0.468 6.975-0.611 10.535-0.432 11.649-0.647 12.584-1.546 12.584l-0 0z"></path>
</symbol>
<symbol id="icon-brcontrast" viewBox="0 0 32 32">
<path d="M26.284 4.684l-2.058 2.058c-0.137 0.137-0.215 0.322-0.215 0.516s0.077 0.38 0.215 0.516c0.131 0.138 0.311 0.219 0.502 0.225 0.193 0.001 0.379-0.075 0.516-0.211l2.058-2.058c0.285-0.285 0.285-0.748 0-1.033s-0.748-0.285-1.033 0l0.014-0.015z"></path>
<path d="M6.741 24.225l-2.058 2.058c-0.138 0.137-0.215 0.323-0.215 0.516s0.077 0.38 0.215 0.516c0.137 0.138 0.323 0.215 0.516 0.215s0.38-0.077 0.516-0.215l2.058-2.058c0.285-0.285 0.285-0.748 0-1.033s-0.748-0.285-1.033 0z"></path>
<path d="M6.742 7.775c0.137 0.138 0.322 0.215 0.516 0.215s0.38-0.077 0.516-0.215c0.138-0.137 0.215-0.322 0.215-0.516s-0.077-0.38-0.215-0.516l-2.058-2.058c-0.285-0.285-0.748-0.285-1.033 0s-0.285 0.748 0 1.033l2.058 2.058z"></path>
<path d="M25.258 24.225c-0.285-0.285-0.748-0.285-1.033 0s-0.285 0.748 0 1.033l2.058 2.058c0.137 0.138 0.323 0.215 0.516 0.215s0.38-0.077 0.516-0.215c0.138-0.137 0.215-0.323 0.215-0.516s-0.077-0.38-0.215-0.516l-2.058-2.058z"></path>
<path d="M15.999 4.364c0.193 0 0.378-0.076 0.514-0.213s0.213-0.321 0.213-0.514v-2.909c0-0.402-0.326-0.727-0.727-0.727s-0.727 0.326-0.727 0.727v2.909c0 0.193 0.077 0.378 0.213 0.514s0.322 0.213 0.514 0.213z"></path>
<path d="M15.999 27.636c-0.402 0-0.727 0.326-0.727 0.727v2.909c0 0.402 0.326 0.727 0.727 0.727s0.727-0.326 0.727-0.727v-2.909c0-0.193-0.077-0.378-0.213-0.514s-0.321-0.213-0.514-0.213z"></path>
<path d="M3.636 15.272h-2.909c-0.402 0-0.727 0.326-0.727 0.727s0.326 0.727 0.727 0.727h2.909c0.402 0 0.727-0.326 0.727-0.727s-0.326-0.727-0.727-0.727z"></path>
<path d="M31.272 15.272h-2.909c-0.402 0-0.727 0.326-0.727 0.727s0.326 0.727 0.727 0.727h2.909c0.401 0 0.727-0.326 0.727-0.727s-0.326-0.727-0.727-0.727z"></path>
<path d="M16 7.273c-2.315 0-4.534 0.919-6.171 2.556s-2.556 3.857-2.556 6.171c0 2.314 0.919 4.534 2.556 6.171s3.857 2.556 6.171 2.556 4.534-0.919 6.171-2.556c1.637-1.637 2.556-3.857 2.556-6.171s-0.92-4.534-2.556-6.171c-1.637-1.637-3.857-2.556-6.171-2.556zM16 22.545v-13.091c2.338 0 4.499 1.248 5.669 3.273s1.169 4.52 0 6.545c-1.169 2.025-3.33 3.273-5.669 3.273z"></path>
</symbol>
<symbol id="icon-button_icon" viewBox="0 0 32 32">
<path d="M32 16c0-8.802-7.154-16-16-16s-16 7.198-16 16c0 8.802 7.198 16 16 16s16-7.198 16-16zM16 4.856c1.344 0 2.428 1.084 2.428 2.428s-1.084 2.428-2.428 2.428c-1.344 0-2.428-1.084-2.428-2.428 0-1.301 1.084-2.428 2.428-2.428zM13.572 26.060c-0.217 0.477-0.65 0.737-1.127 0.737-0.173 0-0.347-0.043-0.52-0.13-0.65-0.304-0.911-1.041-0.607-1.691 0 0 2.385-5.463 2.818-7.458 0.173-0.694 0.26-2.558 0.304-3.425 0-0.304-0.173-0.564-0.434-0.65l-5.377-1.561c-0.694-0.217-1.084-0.954-0.867-1.604s0.954-0.954 1.604-0.78c0 0 4.9 1.561 6.634 1.561s6.721-1.604 6.721-1.604c0.65-0.173 1.388 0.217 1.561 0.867s-0.217 1.388-0.867 1.561l-5.333 1.604c-0.26 0.087-0.477 0.347-0.434 0.65 0.043 0.867 0.13 2.732 0.304 3.425 0.434 1.995 2.818 7.458 2.818 7.458 0.304 0.65 0 1.388-0.607 1.691-0.173 0.087-0.347 0.13-0.52 0.13-0.477 0-0.954-0.26-1.127-0.737l-2.515-5.247-2.428 5.204z"></path>
</symbol>
<symbol id="icon-checker_logo" viewBox="0 0 97 32">
<path fill="#231f20" style="fill: var(--color3, #231f20)" d="M2.685 13.722h15.114v15.716h-15.114v-15.716zM3.594 14.651v13.857h13.296v-13.857h-13.296z"></path>
<path fill="#ec1c24" style="fill: var(--color4, #ec1c24)" d="M16.488 13.634c-0.164 0.181-0.681 0.826-0.861 0.902-0.099 0.152-0.221 0.23-0.34 0.375l-3.070 3.36c-0.142 0.142-0.189 0.241-0.331 0.383l-1.644 1.975c-0.25-0.022-0.645-0.307-0.868-0.422l-0.812-0.478c-0.272-0.168-0.526-0.314-0.806-0.486l-4.092-2.418c-0.18-0.068-0.818-0.396-0.918-0.529-0.157-0.034-0.342-0.171-0.509-0.255-0.32-0.162-1.278-0.621-1.55-0.717-0.559-0.198-0.678 0.173-0.686 0.625v1.545c0.003 0.021 0.005 0.040 0.009 0.057 0.064 0.312 1.691 2.099 2.028 2.529l0.7 0.847c0.151 0.080 0.138 0.123 0.247 0.263 0.078 0.1 0.146 0.157 0.226 0.263 0.122 0.161 0.374 0.409 0.449 0.576 0.007 0.008 0.018 0.009 0.021 0.024l0.268 0.317c0.106 0.14 0.193 0.243 0.296 0.375 0.574 0.734 1.106 1.5 1.58 2.31 0.449 0.767 1.013 1.687 1.416 2.478 0.090 0.177 0.36 0.731 0.462 0.858l0.474 0.948 0.77 1.415c0.767 1.467 1 1.828 1.971 0.044l0.586-1.072c0.084-0.146 0.114-0.253 0.209-0.387 0.058-0.171 0.403-0.846 0.515-0.937 0.038-0.162 0.777-1.51 0.925-1.772 0.431-0.763 0.788-1.478 1.273-2.263 0.204-0.331 0.401-0.632 0.597-0.971s0.414-0.642 0.602-0.964c0.197-0.338 0.407-0.615 0.606-0.961 0.105-0.182 0.515-0.845 0.632-0.934 0.038-0.186 0.566-0.929 0.737-1.184l0.146-0.19 1.747-2.571c0.161-0.228 0.282-0.405 0.442-0.631l4.974-6.468 0.784-0.869c0.334-0.448 4.817-4.998 5.352-5.539 0.12-0.121 0.145-0.159 0.247-0.289 0.091-0.116 0.178-0.19 0.283-0.298 0.142-0.145 1.291-1.296 1.53-1.637 0.206-0.292 0.407-0.442 0.269-0.858-0.905-0.077-2.365 1.011-3.108 1.517-1.261 0.86-2.372 1.756-3.558 2.682l-1.335 1.072c-0.716 0.598-1.888 1.525-2.561 2.165l-0.751 0.675c-0.609 0.523-1.165 1.089-1.764 1.626-0.346 0.312-0.597 0.65-0.967 0.952-0.295 0.24-0.669 0.675-0.953 0.966-0.65 0.663-1.238 1.301-1.887 1.975z"></path>
<path fill="#231f20" style="fill: var(--color3, #231f20)" d="M33.096 18.358v0.227l-0.069-0.227h-1.386l-0.011-0.018c-0.42-0.712-0.984-1.279-1.687-1.699-0.67-0.397-1.409-0.698-2.19-0.736-0.081-0.003-0.161-0.012-0.242-0.018-0.078-0.007-0.157 0-0.235 0-1.478 0-2.68 0.639-3.662 1.754-1.017 1.155-1.554 2.501-1.554 4.058 0 1.609 0.511 3.019 1.588 4.197 1.007 1.103 2.229 1.737 3.713 1.737 0.871 0 1.68-0.251 2.429-0.701 0.772-0.465 1.406-1.080 1.892-1.848l0.011-0.018 1.473-0.022-0.025 0.055c-0.544 1.178-1.35 2.13-2.41 2.851-1.020 0.693-2.143 1.089-3.37 1.089-1.87 0-3.431-0.721-4.703-2.118-1.332-1.465-1.931-3.226-1.931-5.219 0-1.966 0.618-3.694 1.931-5.136 1.245-1.368 2.767-2.107 4.601-2.107 0.644 0 1.281 0.099 1.897 0.287 0.633 0.192 1.214 0.499 1.746 0.899 0.109 0.082 0.22 0.158 0.325 0.244 0.111 0.093 0.216 0.193 0.323 0.29 0.303 0.27 0.587 0.56 0.841 0.879 0.245 0.309 0.483 0.658 0.615 1.034 0.014 0.040 0.030 0.076 0.047 0.114 0.011 0.024 0.020 0.048 0.028 0.073h0.015v0.047l0.009 0.029h-0.011v0.001zM36.423 20.848h6.44v-6.178h1.333v14.124h-1.333v-6.6h-6.44v6.6h-1.333v-14.124h1.333v6.178zM48.038 16.016v4.983h5.427v1.346h-5.427v5.101h5.614v1.346h-6.945v-14.123h6.945v1.347h-5.614zM67.644 18.358v0.227l-0.069-0.227h-1.386l-0.011-0.018c-0.422-0.712-0.984-1.279-1.688-1.699-0.669-0.397-1.409-0.698-2.19-0.736-0.081-0.003-0.161-0.012-0.242-0.018-0.078-0.007-0.157 0-0.234 0-1.479 0-2.68 0.639-3.662 1.754-1.016 1.155-1.554 2.501-1.554 4.058 0 1.609 0.511 3.019 1.587 4.197 1.008 1.103 2.229 1.737 3.713 1.737 0.871 0 1.68-0.251 2.43-0.701 0.771-0.465 1.406-1.080 1.891-1.848l0.011-0.018 1.474-0.022-0.025 0.055c-0.544 1.178-1.35 2.13-2.411 2.851-1.019 0.693-2.141 1.089-3.37 1.089-1.87 0-3.431-0.721-4.703-2.118-1.333-1.465-1.931-3.226-1.931-5.219 0-1.966 0.618-3.694 1.931-5.136 1.246-1.368 2.767-2.107 4.6-2.107 0.645 0 1.281 0.099 1.898 0.287 0.633 0.192 1.215 0.499 1.747 0.899 0.108 0.082 0.219 0.158 0.324 0.244 0.111 0.093 0.216 0.193 0.324 0.29 0.302 0.27 0.587 0.56 0.841 0.879 0.244 0.309 0.483 0.658 0.615 1.034 0.014 0.040 0.030 0.076 0.047 0.114 0.011 0.024 0.019 0.048 0.028 0.073h0.015v0.047l0.009 0.029h-0.008v0.001zM70.97 22.671l5.741-8.001h1.691l-4.989 6.884 4.987 7.24h-1.656l-4.178-6.056-1.597 2.195v3.862h-1.332v-14.124h1.332v8.001zM81.019 16.016v4.983h5.427v1.346h-5.427v5.101h5.614v1.346h-6.947v-14.123h6.947v1.347h-5.614zM93.717 23.566l3.538 5.227h-1.651l-4.32-6.445h0.451l0.006 0.002c0.027 0.012 0.057 0.017 0.087 0.017 0.034 0 0.070 0 0.105 0 0.157 0 0.315 0 0.473 0 0.163 0 0.327-0.009 0.491-0.019 0.272-0.016 0.545-0.047 0.814-0.098 0.258-0.049 0.505-0.137 0.738-0.26 0.506-0.264 0.909-0.638 1.192-1.143 0.289-0.517 0.42-1.080 0.42-1.674 0-0.025 0-0.050 0-0.077 0-0.012 0-0.024 0-0.037-0.011-0.469-0.132-0.917-0.335-1.337-0.197-0.405-0.47-0.753-0.82-1.030-0.335-0.263-0.709-0.451-1.126-0.528-0.408-0.075-0.821-0.123-1.235-0.129-0.074-0.002-0.148 0-0.221 0-0.080 0-0.158 0.001-0.238 0l-1.954-0.022v12.777h-1.332v-14.123h3.029c0.205 0 0.409 0.019 0.615 0.019s0.41 0.019 0.615 0.038c0.412 0.039 0.823 0.083 1.228 0.172 0.406 0.089 0.784 0.256 1.134 0.484 0.638 0.413 1.142 0.953 1.479 1.646 0.346 0.714 0.493 1.485 0.493 2.279 0 1.134-0.352 2.131-1.097 2.972-0.696 0.782-1.544 1.239-2.579 1.286z"></path>
</symbol>
<symbol id="icon-close" viewBox="0 0 31 32">
<path d="M0.905 27.374l25.519-25.519c0.5-0.5 1.31-0.5 1.81 0l1.144 1.144c0.5 0.5 0.5 1.31 0 1.81l-25.519 25.519c-0.5 0.5-1.31 0.5-1.81 0l-1.144-1.144c-0.5-0.5-0.5-1.31 0-1.81z"></path>
<path d="M29.815 26.424l-25.519-25.519c-0.5-0.5-1.31-0.5-1.81 0l-1.144 1.144c-0.5 0.5-0.5 1.31 0 1.81l25.519 25.519c0.5 0.5 1.31 0.5 1.81 0l1.144-1.144c0.5-0.5 0.5-1.31 0-1.81z"></path>
</symbol>
<symbol id="icon-cognitive_profile" viewBox="0 0 32 32">
<path d="M4.77 9.616v6.997c-0.258-0.053-0.52-0.079-0.785-0.079-2.198 0-3.985 1.788-3.985 3.985s1.788 3.985 3.985 3.985c0.265 0 0.527-0.027 0.785-0.079v6.997c0 0.32 0.258 0.578 0.578 0.578h7.784c0.195 0 0.377-0.098 0.484-0.261s0.124-0.37 0.046-0.548c-0.158-0.363-0.239-0.744-0.239-1.132 0-1.56 1.269-2.829 2.829-2.829s2.829 1.269 2.829 2.829c0 0.389-0.081 0.77-0.239 1.131-0.079 0.179-0.061 0.385 0.046 0.548s0.288 0.262 0.484 0.262h7.785c0.32 0 0.578-0.258 0.578-0.578v-7.785c0-0.195-0.098-0.377-0.262-0.484s-0.37-0.123-0.548-0.046c-0.362 0.158-0.742 0.239-1.131 0.239-1.56 0-2.829-1.269-2.829-2.829s1.269-2.829 2.829-2.829c0.388 0 0.768 0.081 1.132 0.239 0.178 0.079 0.384 0.061 0.548-0.046s0.261-0.288 0.261-0.484v-7.784c0-0.32-0.258-0.578-0.578-0.578h-6.997c0.053-0.258 0.079-0.52 0.079-0.785 0-2.198-1.788-3.985-3.985-3.985s-3.985 1.788-3.985 3.985c0 0.265 0.027 0.527 0.079 0.785h-6.997c-0.32 0-0.578 0.258-0.578 0.578l-0.002 0.002zM5.665 17.883c0.163-0.107 0.261-0.288 0.261-0.484v-7.206h7.206c0.195 0 0.377-0.098 0.484-0.261s0.124-0.37 0.046-0.548c-0.158-0.363-0.239-0.744-0.239-1.132 0-1.56 1.269-2.829 2.829-2.829s2.829 1.269 2.829 2.829c0 0.389-0.081 0.77-0.239 1.131-0.079 0.178-0.061 0.385 0.046 0.548s0.288 0.262 0.484 0.262h7.207v6.419c-0.258-0.053-0.52-0.079-0.785-0.079-2.198 0-3.985 1.788-3.985 3.985s1.788 3.985 3.985 3.985c0.265 0 0.528-0.027 0.785-0.079v6.42h-6.42c0.053-0.258 0.079-0.52 0.079-0.785 0-2.198-1.788-3.985-3.985-3.985s-3.985 1.788-3.985 3.985c0 0.265 0.027 0.527 0.079 0.785h-6.419v-7.207c0-0.195-0.098-0.377-0.262-0.484s-0.37-0.122-0.548-0.046c-0.362 0.158-0.742 0.239-1.131 0.239-1.56 0-2.829-1.269-2.829-2.829s1.269-2.829 2.829-2.829c0.388 0 0.768 0.081 1.132 0.239 0.178 0.079 0.384 0.061 0.548-0.046l-0.001 0.001z"></path>
</symbol>
<symbol id="icon-dyslexia" viewBox="0 0 29 32">
<path d="M25.836 6.8c-0.425 0-0.708 0.288-0.708 0.72v23.040h-20.523c-1.203 0-2.123-0.936-2.123-2.16s0.92-2.16 2.123-2.16h19.108c0.425 0 0.708-0.288 0.708-0.72v-21.6c0-0.432-0.283-0.72-0.708-0.72h-19.108c-1.982 0-3.538 1.584-3.538 3.6v21.6c0 2.016 1.557 3.6 3.538 3.6h21.231c0.425 0 0.708-0.288 0.708-0.72v-23.76c0-0.432-0.283-0.72-0.708-0.72l0 0.001zM23.005 24.8h-17.692v-20.16h17.692v20.16zM24.421 28.4c0 0.432-0.283 0.72-0.708 0.72h-19.108c-0.425 0-0.708-0.288-0.708-0.72s0.283-0.72 0.708-0.72h19.108c0.425 0 0.708 0.288 0.708 0.72zM8.144 8.96c0-0.432 0.283-0.72 0.708-0.72h10.615c0.425 0 0.708 0.288 0.708 0.72s-0.283 0.72-0.708 0.72l-10.615-0.001c-0.425 0-0.708-0.288-0.708-0.72zM19.467 11.84c0 0.432-0.283 0.72-0.708 0.72h-9.2c-0.425 0-0.708-0.288-0.708-0.72s0.283-0.72 0.708-0.72h9.2c0.425 0.001 0.708 0.288 0.708 0.72z"></path>
</symbol>
<symbol id="icon-epilepsy_profile" viewBox="0 0 32 32">
<path d="M16.831 20.616c-0.523 0.648-0.815 1.468-0.815 2.312 0 0.804 0.255 1.57 0.727 2.199-0.467 0.514-0.727 1.184-0.727 1.9 0 1.566 1.272 2.84 2.834 2.84 1.077 0 2.037-0.596 2.519-1.524 0.361 0.116 0.744 0.176 1.129 0.176 2.040 0 3.7-1.66 3.7-3.7 0-0.298-0.035-0.591-0.104-0.876 1.396-0.548 2.335-1.899 2.335-3.439 0-1.005-0.41-1.954-1.11-2.639 1.267-0.599 2.117-1.889 2.117-3.345 0-1.314-0.699-2.521-1.811-3.179 0.077-0.296 0.116-0.604 0.116-0.92 0-1.563-0.982-2.948-2.424-3.473-0.273-1.782-1.82-3.135-3.654-3.135-0.073 0-0.145 0.002-0.217 0.007-0.45-1.010-1.467-1.686-2.596-1.686-1.563 0-2.834 1.274-2.834 2.84 0 0.716 0.272 1.402 0.746 1.919-0.474 0.515-0.746 1.199-0.746 1.917 0 0.664 0.23 1.297 0.642 1.796-0.508 0.644-0.784 1.436-0.784 2.272 0 0.994 0.403 1.94 1.099 2.628-0.696 0.685-1.099 1.632-1.099 2.631 0 0.924 0.344 1.804 0.957 2.48v-0zM17.947 15.892c0.084-0.048 0.875-0.488 1.763-0.398 0.26 0.025 0.481-0.16 0.506-0.414s-0.16-0.481-0.414-0.506c-0.872-0.086-1.648 0.198-2.054 0.386-0.598-0.522-0.95-1.281-0.95-2.083 0-0.736 0.286-1.426 0.803-1.944 0.181-0.144 1.642-1.237 3.062-0.132 0.203 0.157 0.493 0.12 0.649-0.081s0.121-0.492-0.081-0.649c-1.431-1.113-3.003-0.638-3.883-0.089-0.26-0.33-0.409-0.74-0.409-1.173 0-0.612 0.293-1.188 0.784-1.54 0.12-0.086 0.192-0.226 0.193-0.374s-0.070-0.288-0.191-0.376c-0.492-0.357-0.785-0.935-0.785-1.547 0-1.056 0.857-1.915 1.91-1.915 0.843 0 1.59 0.559 1.833 1.362 0.016 0.223 0.042 1.253-0.78 1.71-0.224 0.124-0.304 0.405-0.18 0.628 0.084 0.152 0.242 0.238 0.404 0.238 0.076 0 0.153-0.019 0.224-0.058 0.052-0.029 0.098-0.062 0.146-0.093 0.319 0.458 0.942 1.024 2.109 1.147 0.016 0.002 0.033 0.002 0.049 0.002 0.234 0 0.434-0.176 0.459-0.414 0.027-0.254-0.157-0.481-0.411-0.508-0.971-0.102-1.38-0.612-1.535-0.894 0.323-0.497 0.417-1.052 0.438-1.435 0.020-0 0.038-0.005 0.058-0.005 1.457 0 2.671 1.138 2.766 2.591 0.013 0.198 0.15 0.365 0.342 0.417 1.204 0.322 2.045 1.422 2.045 2.676 0 0.201-0.027 0.394-0.069 0.583-0.575-0.118-1.591-0.193-2.718 0.346-0.23 0.11-0.328 0.386-0.218 0.617 0.079 0.166 0.245 0.263 0.418 0.263 0.067 0 0.134-0.014 0.199-0.045 1.287-0.615 2.364-0.223 2.451-0.189 0.991 0.445 1.632 1.435 1.632 2.525 0 1.33-0.945 2.473-2.249 2.724-0.003 0.001-0.006-0.001-0.009-0-0.737 0.139-1.454-0.018-2.035-0.403 0.363-1.034 0.008-1.962-0.293-2.371-0.151-0.206-0.44-0.25-0.646-0.098s-0.25 0.441-0.098 0.646c0.007 0.009 0.675 0.942-0.114 2.049-0.527 0.739-1.717 0.519-1.728 0.517-0.25-0.049-0.494 0.112-0.544 0.362s0.112 0.494 0.362 0.544c0.026 0.005 0.261 0.050 0.593 0.050 0.583 0 1.463-0.144 2.028-0.887 0.582 0.365 1.26 0.564 1.959 0.564 0.162 0 0.327-0.015 0.493-0.038 0.788 0.503 1.276 1.377 1.276 2.323 0 1.271-0.854 2.37-2.077 2.682-0.346 0.033-1.273 0.039-1.914-0.296-0.226-0.119-0.506-0.031-0.624 0.195s-0.031 0.506 0.195 0.624c0.669 0.351 1.475 0.416 1.984 0.416 0.039 0 0.071-0.001 0.106-0.002 0.059 0.226 0.099 0.457 0.099 0.695 0 1.531-1.245 2.776-2.776 2.776-0.297 0-0.592-0.049-0.868-0.14 0.113-1.334-0.864-2.329-0.91-2.375-0.18-0.18-0.474-0.179-0.654 0.001s-0.179 0.474 0.002 0.654c0.009 0.008 0.851 0.864 0.603 1.888-0.258 0.791-0.987 1.321-1.821 1.321-1.053 0-1.91-0.859-1.91-1.915 0-0.593 0.264-1.139 0.725-1.499 0.104-0.081 0.168-0.202 0.177-0.333s-0.038-0.26-0.13-0.354c-0.498-0.512-0.772-1.191-0.772-1.913 0-0.629 0.219-1.238 0.606-1.722 0.458 0.268 1.119 0.504 1.895 0.504 0.754 0 1.616-0.222 2.505-0.85 0.208-0.148 0.258-0.436 0.11-0.644s-0.436-0.258-0.645-0.11c-1.995 1.414-3.543 0.217-3.639 0.14-0.62-0.527-0.975-1.296-0.975-2.108-0-0.893 0.429-1.73 1.148-2.244v0z"></path>
<path d="M4.25 17.864c-0.699 0.684-1.11 1.633-1.11 2.639 0 1.539 0.939 2.891 2.335 3.439-0.070 0.285-0.104 0.578-0.104 0.876 0 2.041 1.66 3.7 3.7 3.7 0.385 0 0.768-0.060 1.129-0.176 0.482 0.929 1.442 1.525 2.519 1.525 1.563 0 2.834-1.274 2.834-2.84 0-0.715-0.26-1.386-0.727-1.9 0.472-0.629 0.727-1.395 0.727-2.199 0-0.844-0.293-1.663-0.815-2.312 0.613-0.676 0.957-1.556 0.957-2.48 0-0.998-0.403-1.946-1.099-2.631 0.696-0.688 1.099-1.635 1.099-2.628 0-0.836-0.275-1.628-0.784-2.272 0.412-0.499 0.642-1.132 0.642-1.796 0-0.718-0.272-1.403-0.746-1.917 0.474-0.518 0.746-1.203 0.746-1.919 0-1.566-1.271-2.84-2.834-2.84-1.129 0-2.146 0.676-2.596 1.686-0.072-0.005-0.144-0.007-0.217-0.007-1.834 0-3.381 1.353-3.654 3.135-1.442 0.525-2.424 1.909-2.424 3.473 0 0.316 0.039 0.624 0.116 0.92-1.112 0.658-1.811 1.865-1.811 3.179-0 1.456 0.85 2.745 2.117 3.344l0 0zM4.689 11.995c0.049-0.019 1.146-0.436 2.451 0.189 0.065 0.031 0.132 0.045 0.199 0.045 0.173 0 0.338-0.097 0.417-0.263 0.11-0.23 0.013-0.506-0.218-0.617-1.127-0.539-2.143-0.464-2.718-0.346-0.041-0.189-0.069-0.382-0.069-0.583 0-1.254 0.841-2.355 2.045-2.676 0.192-0.051 0.329-0.219 0.342-0.417 0.095-1.453 1.309-2.591 2.766-2.591 0.020 0 0.038 0.005 0.058 0.005 0.021 0.384 0.115 0.937 0.438 1.435-0.155 0.282-0.563 0.792-1.535 0.894-0.254 0.027-0.438 0.254-0.411 0.508 0.025 0.237 0.225 0.414 0.459 0.414 0.016 0 0.033-0.001 0.049-0.002 1.168-0.123 1.79-0.689 2.109-1.147 0.048 0.032 0.094 0.064 0.146 0.093 0.071 0.039 0.148 0.058 0.224 0.058 0.163 0 0.32-0.086 0.404-0.238 0.124-0.223 0.044-0.505-0.18-0.628-0.822-0.457-0.796-1.486-0.78-1.71 0.242-0.803 0.99-1.362 1.833-1.362 1.053 0 1.91 0.859 1.91 1.915 0 0.612-0.294 1.19-0.785 1.547-0.121 0.087-0.191 0.227-0.191 0.376s0.072 0.288 0.193 0.374c0.491 0.352 0.784 0.928 0.784 1.54 0 0.433-0.149 0.844-0.409 1.173-0.88-0.55-2.452-1.023-3.883 0.089-0.201 0.157-0.238 0.447-0.081 0.649s0.447 0.238 0.649 0.081c1.413-1.1 2.887-0.006 3.064 0.134 0.516 0.518 0.802 1.207 0.802 1.942 0 0.802-0.352 1.561-0.949 2.082-0.406-0.188-1.182-0.472-2.054-0.386-0.254 0.025-0.439 0.252-0.414 0.506s0.25 0.44 0.506 0.414c0.884-0.089 1.675 0.347 1.764 0.398 0.719 0.513 1.148 1.351 1.148 2.243 0 0.813-0.356 1.582-0.976 2.109-0.043 0.035-1.62 1.288-3.638-0.14-0.209-0.148-0.497-0.098-0.645 0.11s-0.098 0.497 0.11 0.644c0.889 0.629 1.751 0.85 2.505 0.85 0.777 0 1.437-0.235 1.895-0.504 0.387 0.484 0.606 1.093 0.606 1.722 0 0.722-0.274 1.402-0.772 1.913-0.092 0.094-0.139 0.223-0.13 0.354s0.073 0.252 0.177 0.333c0.461 0.36 0.725 0.906 0.725 1.499 0 1.056-0.857 1.915-1.91 1.915-0.834 0-1.563-0.53-1.821-1.321-0.243-1.006 0.584-1.869 0.604-1.889 0.18-0.18 0.18-0.472 0-0.653s-0.474-0.182-0.654-0.001c-0.046 0.046-1.023 1.041-0.91 2.375-0.276 0.091-0.571 0.14-0.868 0.14-1.531 0-2.776-1.245-2.776-2.776 0-0.238 0.040-0.469 0.099-0.695 0.035 0.001 0.067 0.002 0.106 0.002 0.509 0 1.315-0.066 1.984-0.416 0.226-0.119 0.314-0.398 0.195-0.624s-0.399-0.314-0.624-0.195c-0.711 0.372-1.71 0.313-1.912 0.297-1.224-0.312-2.079-1.411-2.079-2.683 0-0.946 0.488-1.82 1.276-2.323 0.165 0.023 0.331 0.038 0.493 0.038 0.699 0 1.377-0.2 1.959-0.564 0.566 0.743 1.445 0.887 2.028 0.887 0.332 0 0.567-0.045 0.593-0.050 0.25-0.050 0.411-0.293 0.362-0.542s-0.292-0.412-0.542-0.364c-0.012 0.002-1.203 0.222-1.73-0.517-0.775-1.087-0.143-2.008-0.112-2.052 0.149-0.205 0.104-0.493-0.1-0.643-0.206-0.151-0.495-0.108-0.646 0.098-0.301 0.409-0.656 1.337-0.293 2.371-0.582 0.385-1.298 0.542-2.035 0.403-0.003-0.001-0.006 0.001-0.009 0-1.304-0.251-2.249-1.395-2.249-2.724 0-1.090 0.64-2.080 1.632-2.525h-0z"></path>
</symbol>
<symbol id="icon-hideimg" viewBox="0 0 32 32">
<path d="M28.018 22.471c0 0.583-0.090 1.144-0.257 1.672l1.427 1.427c0.435-0.942 0.678-1.992 0.678-3.098v-12.942c0-4.084-3.311-7.396-7.396-7.396h-12.942c-1.106 0-2.156 0.243-3.099 0.679l1.427 1.427c0.528-0.167 1.089-0.256 1.672-0.256h12.942c3.063 0 5.547 2.483 5.547 5.547v12.942z"></path>
<path d="M3.687 4.994l-1.282-1.282c-0.361-0.361-0.361-0.946 0-1.307s0.946-0.361 1.307 0l25.884 25.884c0.361 0.361 0.361 0.946 0 1.307s-0.946 0.361-1.307 0l-1.282-1.282c-1.252 0.974-2.826 1.553-4.535 1.553h-12.942c-4.084 0-7.396-3.311-7.396-7.396v-12.942c0-1.709 0.58-3.283 1.553-4.535zM25.685 26.993l-20.677-20.677c-0.646 0.907-1.025 2.016-1.025 3.214v12.942c0 0.178 0.008 0.354 0.025 0.527l2.096-3.354c2.324-3.718 7.595-4.098 10.427-0.75l7.525 8.894c0.59-0.176 1.139-0.447 1.628-0.796l0.001-0zM21.829 28.018l-6.71-7.93c-2.023-2.391-5.788-2.12-7.448 0.536l-2.905 4.648c-0.004 0.007-0.009 0.014-0.013 0.021 0.966 1.631 2.743 2.725 4.776 2.725l12.301 0z"></path>
<path d="M21.085 9.067c-1.532 0-2.773 1.242-2.773 2.773s1.242 2.773 2.773 2.773 2.773-1.242 2.773-2.773c0-1.532-1.242-2.773-2.773-2.773zM20.16 11.84c0-0.511 0.414-0.924 0.924-0.924s0.924 0.414 0.924 0.924c0 0.511-0.414 0.924-0.924 0.924s-0.924-0.414-0.924-0.924z"></path>
</symbol>
<symbol id="icon-keyboard_profile" viewBox="0 0 31 32">
<path d="M27.065 24.533h-21.561c-1.27 0-2.304-1.034-2.304-2.304v-12.459c0-1.27 1.034-2.304 2.304-2.304h21.561c1.27 0 2.304 1.034 2.304 2.304v12.459c0 1.27-1.034 2.304-2.304 2.304zM5.504 8.604c-0.643 0-1.166 0.523-1.166 1.166v12.459c0 0.643 0.523 1.166 1.166 1.166h21.561c0.643 0 1.166-0.523 1.166-1.166v-12.459c0-0.643-0.523-1.166-1.166-1.166h-21.561z"></path>
<path d="M8.321 13.156h-2.276c-0.314 0-0.569-0.255-0.569-0.569v-2.276c0-0.314 0.255-0.569 0.569-0.569h2.276c0.314 0 0.569 0.255 0.569 0.569v2.276c0 0.314-0.255 0.569-0.569 0.569zM6.614 12.018h1.138v-1.138h-1.138v1.138z"></path>
<path d="M12.872 13.156h-2.276c-0.314 0-0.569-0.255-0.569-0.569v-2.276c0-0.314 0.255-0.569 0.569-0.569h2.276c0.314 0 0.569 0.255 0.569 0.569v2.276c0 0.314-0.255 0.569-0.569 0.569zM11.165 12.018h1.138v-1.138h-1.138v1.138z"></path>
<path d="M17.423 13.156h-2.276c-0.314 0-0.569-0.255-0.569-0.569v-2.276c0-0.314 0.255-0.569 0.569-0.569h2.276c0.314 0 0.569 0.255 0.569 0.569v2.276c0 0.314-0.255 0.569-0.569 0.569zM15.716 12.018h1.138v-1.138h-1.138v1.138z"></path>
<path d="M21.974 13.156h-2.276c-0.314 0-0.569-0.255-0.569-0.569v-2.276c0-0.314 0.255-0.569 0.569-0.569h2.276c0.314 0 0.569 0.255 0.569 0.569v2.276c0 0.314-0.255 0.569-0.569 0.569zM20.267 12.018h1.138v-1.138h-1.138v1.138z"></path>
<path d="M26.525 13.156h-2.276c-0.314 0-0.569-0.255-0.569-0.569v-2.276c0-0.314 0.255-0.569 0.569-0.569h2.276c0.314 0 0.569 0.255 0.569 0.569v2.276c0 0.314-0.255 0.569-0.569 0.569zM24.818 12.018h1.138v-1.138h-1.138v1.138z"></path>
<path d="M8.321 17.707h-2.276c-0.314 0-0.569-0.255-0.569-0.569v-2.276c0-0.314 0.255-0.569 0.569-0.569h2.276c0.314 0 0.569 0.255 0.569 0.569v2.276c0 0.314-0.255 0.569-0.569 0.569zM6.614 16.569h1.138v-1.138h-1.138v1.138z"></path>
<path d="M12.872 17.707h-2.276c-0.314 0-0.569-0.255-0.569-0.569v-2.276c0-0.314 0.255-0.569 0.569-0.569h2.276c0.314 0 0.569 0.255 0.569 0.569v2.276c0 0.314-0.255 0.569-0.569 0.569zM11.165 16.569h1.138v-1.138h-1.138v1.138z"></path>
<path d="M17.423 17.707h-2.276c-0.314 0-0.569-0.255-0.569-0.569v-2.276c0-0.314 0.255-0.569 0.569-0.569h2.276c0.314 0 0.569 0.255 0.569 0.569v2.276c0 0.314-0.255 0.569-0.569 0.569zM15.716 16.569h1.138v-1.138h-1.138v1.138z"></path>
<path d="M21.974 17.707h-2.276c-0.314 0-0.569-0.255-0.569-0.569v-2.276c0-0.314 0.255-0.569 0.569-0.569h2.276c0.314 0 0.569 0.255 0.569 0.569v2.276c0 0.314-0.255 0.569-0.569 0.569zM20.267 16.569h1.138v-1.138h-1.138v1.138z"></path>
<path d="M26.525 17.707h-2.276c-0.314 0-0.569-0.255-0.569-0.569v-2.276c0-0.314 0.255-0.569 0.569-0.569h2.276c0.314 0 0.569 0.255 0.569 0.569v2.276c0 0.314-0.255 0.569-0.569 0.569zM24.818 16.569h1.138v-1.138h-1.138v1.138z"></path>
<path d="M21.974 22.258h-11.378c-0.314 0-0.569-0.255-0.569-0.569v-2.276c0-0.314 0.255-0.569 0.569-0.569h11.378c0.314 0 0.569 0.255 0.569 0.569v2.276c0 0.314-0.255 0.569-0.569 0.569zM11.165 21.12h10.24v-1.138h-10.24v1.138z"></path>
</symbol>
<symbol id="icon-lineheight" viewBox="0 0 33 32">
<path d="M31.019 15.015h-12.8c-0.352 0-0.677 0.188-0.853 0.492s-0.176 0.68 0 0.985c0.176 0.305 0.501 0.492 0.853 0.492h12.8c0.352 0 0.677-0.188 0.853-0.492s0.176-0.68 0-0.985c-0.176-0.305-0.501-0.492-0.853-0.492z"></path>
<path d="M31.019 20.923h-12.8c-0.352 0-0.677 0.188-0.853 0.492s-0.176 0.68 0 0.985c0.176 0.305 0.501 0.492 0.853 0.492h12.8c0.352 0 0.677-0.188 0.853-0.492s0.176-0.68 0-0.985c-0.176-0.305-0.501-0.492-0.853-0.492z"></path>
<path d="M26.096 26.831h-18.708c-0.352 0-0.677 0.188-0.853 0.492s-0.176 0.68 0 0.985c0.176 0.305 0.501 0.492 0.853 0.492h18.708c0.352 0 0.677-0.188 0.853-0.492s0.176-0.68 0-0.985c-0.176-0.305-0.501-0.492-0.853-0.492z"></path>
<path d="M31.019 9.108h-12.8c-0.352 0-0.677 0.188-0.853 0.492s-0.176 0.68 0 0.985c0.176 0.305 0.501 0.492 0.853 0.492h12.8c0.352 0 0.677-0.188 0.853-0.492s0.176-0.68 0-0.985c-0.176-0.305-0.501-0.492-0.853-0.492z"></path>
<path d="M7.389 5.169h23.631c0.352 0 0.677-0.188 0.853-0.492s0.176-0.68 0-0.985c-0.176-0.305-0.501-0.492-0.853-0.492h-23.631c-0.352 0-0.677 0.188-0.853 0.492s-0.176 0.68 0 0.985c0.176 0.305 0.501 0.492 0.853 0.492z"></path>
<path d="M8.088 19.239c-0.25-0.25-0.614-0.347-0.955-0.256s-0.608 0.358-0.699 0.699c-0.091 0.341 0.006 0.705 0.256 0.955l2.954 2.954c0.185 0.186 0.436 0.291 0.699 0.291s0.514-0.105 0.699-0.291l2.954-2.954c0.25-0.25 0.347-0.614 0.256-0.955s-0.358-0.608-0.699-0.699c-0.341-0.091-0.705 0.006-0.955 0.256l-1.27 1.28v-9.039l1.27 1.28c0.185 0.186 0.436 0.291 0.699 0.291s0.514-0.105 0.699-0.291c0.186-0.185 0.291-0.436 0.291-0.699s-0.105-0.514-0.291-0.699l-2.954-2.954c-0.185-0.186-0.436-0.291-0.699-0.291s-0.514 0.105-0.699 0.291l-2.954 2.954c-0.25 0.25-0.347 0.614-0.256 0.955s0.358 0.608 0.699 0.699c0.341 0.091 0.705-0.006 0.955-0.256l1.27-1.28v9.039l-1.27-1.28z"></path>
</symbol>
<symbol id="icon-reader" viewBox="0 0 42 32">
<path d="M7.732 23.232c-0.18-0.18-0.416-0.293-0.672-0.284-1.079 0.038-1.968-0.823-1.968-1.892l0-15.138c0-1.041 0.852-1.892 1.892-1.892h22.707c1.041 0 1.892 0.852 1.892 1.892v8.515c0 0.521 0.426 0.946 0.946 0.946s0.946-0.426 0.946-0.946v-8.515c0-2.091-1.694-3.785-3.785-3.785h-22.707c-2.091 0-3.785 1.694-3.785 3.785v15.138c0 1.949 1.485 3.558 3.444 3.766z"></path>
<path d="M6.039 24.841h9.462c0.52 0 0.946-0.426 0.946-0.946s-0.426-0.946-0.946-0.946l-9.462 0c-0.521 0-0.946 0.426-0.946 0.946z"></path>
<path d="M27.507 17.556l-3.349 2.11c-0.218 0.113-0.407 0.274-0.558 0.454h-3.047c-1.23 0-2.223 0.984-2.223 2.186v3.198c0 1.202 0.993 2.186 2.223 2.186h3.047c0.151 0.18 0.331 0.331 0.492 0.416l3.463 2.176c0.312 0.17 0.653 0.246 0.984 0.246 0.53 0 1.069-0.208 1.485-0.624 0.407-0.397 0.596-0.984 0.596-1.552v-8.874c0-0.634-0.227-1.268-0.71-1.684-0.681-0.577-1.59-0.681-2.422-0.227l0.019-0.010zM23.070 25.787h-2.507c-0.18 0-0.331-0.132-0.331-0.293v-3.198c0-0.161 0.151-0.293 0.331-0.293h2.507v3.785zM28.746 28.73c0 0 0 0.095-0.085 0.151-0.038 0.019-0.113 0.057-0.151 0.038l-3.482-2.186-0.066-0.047-0.085-5.071 0.028-0.095 3.538-2.252c0 0 0.076-0.029 0.104-0.029 0.047 0 0.085 0.019 0.104 0.029 0.085 0.047 0.085 0.123 0.085 0.151v9.31l0.009 0z"></path>
<path d="M36.721 17.451c-0.388-0.35-0.984-0.312-1.334 0.076s-0.312 0.984 0.076 1.334c1.485 1.324 2.346 3.226 2.346 5.204s-0.852 3.889-2.346 5.213c-0.388 0.35-0.426 0.946-0.076 1.334 0.189 0.208 0.445 0.322 0.71 0.322 0.227 0 0.445-0.076 0.624-0.237 1.892-1.684 2.98-4.097 2.98-6.633s-1.088-4.939-2.98-6.623v0.010z"></path>
<path d="M33.875 19.306c-0.407-0.331-1.003-0.274-1.334 0.123s-0.274 1.003 0.123 1.334c0.984 0.823 1.552 2.025 1.552 3.311s-0.568 2.498-1.561 3.321c-0.397 0.331-0.454 0.927-0.123 1.334 0.189 0.227 0.454 0.34 0.729 0.34 0.208 0 0.426-0.076 0.605-0.218 1.429-1.183 2.242-2.924 2.242-4.778s-0.814-3.586-2.233-4.769l0 0.001z"></path>
<path d="M25.7 7.81h-15.772c-0.577 0-1.050 0.426-1.050 0.946s0.473 0.946 1.050 0.946l15.772-0c0.577 0 1.050-0.426 1.050-0.946s-0.473-0.946-1.050-0.946v0z"></path>
<path d="M25.7 11.595h-15.772c-0.577 0-1.050 0.426-1.050 0.946s0.473 0.946 1.050 0.946l15.772-0c0.577 0 1.050-0.426 1.050-0.946s-0.473-0.946-1.050-0.946v0z"></path>
<path d="M22.123 15.379h-12.3c-0.52 0-0.946 0.426-0.946 0.946s0.426 0.946 0.946 0.946h12.3c0.521 0 0.946-0.426 0.946-0.946s-0.426-0.946-0.946-0.946z"></path>
</symbol>
<symbol id="icon-readguide" viewBox="0 0 57 32">
<path d="M32.331 19.2l-4.065-3.2-4.065 3.2h-23.135c-0.589 0-1.067 0.478-1.067 1.067v1.067c0 0.589 0.478 1.067 1.067 1.067h54.4c0.589 0 1.067-0.478 1.067-1.067v-1.067c0-0.589-0.478-1.067-1.067-1.067h-23.135z"></path>
</symbol>
<symbol id="icon-readmask" viewBox="0 0 32 32">
<path d="M20.622 28.326v-3.852c0-0.425 0.345-0.77 0.77-0.77s0.77 0.345 0.77 0.77v4.622c0 0.426-0.345 0.77-0.77 0.77h-18.489c-0.425 0-0.77-0.345-0.77-0.77v-18.489c0-0.425 0.345-0.77 0.77-0.77h4.622c0.426 0 0.77 0.345 0.77 0.77s-0.345 0.771-0.77 0.771h-3.852v16.948l16.948-0zM10.607 22.163c-0.425 0-0.77-0.345-0.77-0.77v-18.489c0-0.426 0.345-0.77 0.77-0.77h18.489c0.425 0 0.77 0.345 0.77 0.77v18.489c0 0.425-0.345 0.77-0.77 0.77h-18.489zM11.378 20.622h16.948v-16.948h-16.948v16.948z"></path>
</symbol>
<symbol id="icon-speech" viewBox="0 0 20 32">
<path d="M10.092 22.487c1.529 0 2.995-0.607 4.076-1.689s1.688-2.547 1.688-4.076v-10.957c0-1.529-0.607-2.995-1.688-4.076s-2.547-1.689-4.076-1.689c-1.529 0-2.995 0.607-4.076 1.689s-1.688 2.547-1.688 4.076v10.957c-0 1.529 0.607 2.995 1.688 4.077s2.548 1.689 4.077 1.689v-0zM6.248 16.722v-10.957c0-1.373 0.733-2.642 1.922-3.329s2.654-0.687 3.844 0 1.922 1.956 1.922 3.329v10.957c0 1.373-0.733 2.642-1.922 3.329s-2.654 0.687-3.844 0-1.922-1.956-1.922-3.329v0.001z"></path>
<path d="M19.223 10.476c-0.255-0-0.5 0.101-0.68 0.281s-0.282 0.425-0.281 0.68v5.082c0 4.509-3.665 8.178-8.17 8.178s-8.17-3.669-8.17-8.178v-5.082c0-0.343-0.183-0.66-0.481-0.832s-0.664-0.172-0.961 0c-0.297 0.172-0.48 0.489-0.48 0.832v5.082c0 5.244 4.015 9.568 9.131 10.053v3.505h-3.844c-0.343 0-0.661 0.183-0.832 0.48s-0.172 0.664 0 0.961c0.172 0.297 0.489 0.481 0.832 0.481h9.609c0.343 0 0.66-0.183 0.832-0.481s0.172-0.664 0-0.961c-0.172-0.297-0.489-0.48-0.832-0.48h-3.844v-3.506c5.115-0.486 9.131-4.809 9.131-10.053v-5.082c0-0.255-0.101-0.499-0.281-0.68s-0.425-0.281-0.679-0.281l-0 0z"></path>
</symbol>
<symbol id="icon-tabnav" viewBox="0 0 37 32">
<path d="M34.297 0h-31.483c-0.746 0-1.462 0.292-1.99 0.811s-0.824 1.225-0.824 1.96v26.458c0 0.735 0.296 1.44 0.824 1.96s1.244 0.811 1.99 0.811h31.483c0.748 0.002 1.466-0.289 1.995-0.809s0.827-1.226 0.827-1.962v-26.458c0-0.736-0.298-1.442-0.827-1.962s-1.248-0.811-1.995-0.809zM34.644 29.229c0 0.184-0.151 0.333-0.338 0.333h-31.492c-0.187 0-0.339-0.149-0.339-0.333v-26.458c0-0.184 0.152-0.333 0.339-0.333h20.275v8.593c0 0.278 0.112 0.545 0.312 0.741s0.47 0.307 0.753 0.307h10.49l0 17.15z"></path>
</symbol>
<symbol id="icon-textspace" viewBox="0 0 28 32">
<path d="M22.14 29.967c-0.492 0.396-0.569 1.115-0.173 1.607s1.115 0.569 1.607 0.174l2.844-2.289c0.605-0.488 1.011-1.209 1.011-2.029s-0.406-1.541-1.011-2.030l-2.844-2.289c-0.492-0.396-1.211-0.318-1.607 0.173s-0.318 1.211 0.173 1.607l1.733 1.396h-20.319l1.733-1.396c0.492-0.396 0.569-1.115 0.174-1.607s-1.115-0.569-1.607-0.173l-2.844 2.289c-0.605 0.488-1.011 1.209-1.011 2.030s0.406 1.541 1.011 2.030l2.844 2.289c0.492 0.396 1.211 0.318 1.607-0.173s0.318-1.211-0.174-1.607l-1.733-1.396h20.319l-1.733 1.396z"></path>
<path d="M5.714 2.286c-0.631 0-1.143 0.512-1.143 1.143v1.143c0 0.631-0.512 1.143-1.143 1.143s-1.143-0.512-1.143-1.143v-1.143c0-1.894 1.535-3.429 3.429-3.429h16c1.894 0 3.429 1.535 3.429 3.429v1.143c0 0.631-0.512 1.143-1.143 1.143s-1.143-0.512-1.143-1.143v-1.143c0-0.631-0.512-1.143-1.143-1.143h-6.857v16h4.571c0.631 0 1.143 0.512 1.143 1.143s-0.512 1.143-1.143 1.143h-11.429c-0.631 0-1.143-0.512-1.143-1.143s0.512-1.143 1.143-1.143h4.571v-16h-6.857z"></path>
</symbol>
<symbol id="icon-tooltips" viewBox="0 0 32 32">
<path d="M15.369 14.352c0.502 0 0.983-0.199 1.337-0.554s0.554-0.836 0.554-1.337-0.199-0.982-0.554-1.337c-0.355-0.355-0.836-0.554-1.337-0.554s-0.982 0.199-1.337 0.554c-0.355 0.355-0.554 0.836-0.554 1.337s0.199 0.982 0.554 1.337c0.355 0.355 0.836 0.554 1.337 0.554z"></path>
<path d="M12.849 16.873c0-0.334 0.133-0.655 0.369-0.891s0.557-0.369 0.891-0.369h1.891c0.334 0 0.655 0.133 0.891 0.369s0.369 0.557 0.369 0.891v6.303h1.261c0.334 0 0.655 0.133 0.891 0.369s0.369 0.557 0.369 0.891-0.133 0.655-0.369 0.891c-0.236 0.236-0.557 0.369-0.891 0.369h-5.043c-0.334 0-0.655-0.133-0.891-0.369s-0.369-0.557-0.369-0.891 0.133-0.655 0.369-0.891c0.236-0.236 0.557-0.369 0.891-0.369h1.261v-5.042h-0.63c-0.334 0-0.655-0.133-0.891-0.369s-0.369-0.557-0.369-0.891v0z"></path>
<path d="M2.133 18.133c0-7.658 6.209-13.867 13.867-13.867s13.867 6.209 13.867 13.867c0 7.658-6.209 13.867-13.867 13.867s-13.867-6.209-13.867-13.867zM5.518 13.792c-0.57 1.376-0.864 2.852-0.864 4.342 0 3.009 1.195 5.895 3.323 8.022s5.013 3.323 8.022 3.323 5.895-1.195 8.022-3.323c2.128-2.128 3.323-5.013 3.323-8.022 0-1.49-0.294-2.965-0.863-4.342s-1.406-2.627-2.459-3.681c-1.054-1.053-2.304-1.889-3.681-2.459s-2.852-0.864-4.342-0.864c-1.49 0-2.965 0.294-4.342 0.864s-2.627 1.406-3.681 2.459-1.889 2.304-2.459 3.681h0z"></path>
</symbol>
<symbol id="icon-uncolor" viewBox="0 0 27 32">
<path fill="#666"  stroke-width="1.0323" stroke-miterlimit="4" stroke-linecap="butt" stroke-linejoin="miter"  d="M20.93 10.924c-0.126-0.233-0.417-0.321-0.65-0.195s-0.321 0.417-0.195 0.65l1.682 3.123c1.365 2.543 1.365 5.6 0 8.143-1.217 2.372-3.556 3.962-6.209 4.22-0.592 0.057-1.188 0.057-1.78 0-1.485-0.142-2.898-0.709-4.068-1.634-0.1-0.079-0.227-0.116-0.353-0.101s-0.242 0.079-0.321 0.178c-0.079 0.1-0.115 0.227-0.101 0.353s0.079 0.242 0.179 0.321c1.314 1.041 2.902 1.679 4.57 1.838 0.323 0.031 0.652 0.048 0.983 0.048s0.66-0.017 0.984-0.048c2.973-0.287 5.596-2.067 6.962-4.724 0.747-1.391 1.138-2.946 1.137-4.525s-0.392-3.133-1.139-4.524l-1.682-3.123z"></path>
<path fill="#666"  stroke-width="1.0323" stroke-miterlimit="4" stroke-linecap="butt" stroke-linejoin="miter"  d="M5.926 21.083c0.057 0.209 0.246 0.354 0.462 0.354 0.043 0 0.085-0.006 0.126-0.017 0.123-0.033 0.227-0.114 0.29-0.224s0.080-0.241 0.047-0.364c-0.046-0.172-0.088-0.345-0.124-0.52l0-0c-0.409-1.975-0.112-4.031 0.842-5.809l6.565-12.192c0.114-0.186 0.316-0.3 0.535-0.3s0.421 0.114 0.535 0.3l2.228 4.137c0.125 0.233 0.416 0.321 0.65 0.195 0.112-0.060 0.195-0.162 0.232-0.284s0.024-0.253-0.037-0.365l-2.228-4.137c-0.18-0.334-0.474-0.591-0.829-0.725s-0.746-0.133-1.101 0c-0.355 0.133-0.65 0.391-0.83 0.725l-6.564 12.191c-1.060 1.976-1.391 4.261-0.936 6.457 0.040 0.194 0.086 0.387 0.138 0.578l-0 0z"></path>
<path fill="#666"  stroke-width="1.0323" stroke-miterlimit="4" stroke-linecap="butt" stroke-linejoin="miter"  d="M25.12 1.39c-0.204-0.169-0.506-0.14-0.675 0.064l-21.236 25.63c-0.082 0.098-0.122 0.224-0.11 0.352s0.073 0.244 0.172 0.326c0.099 0.082 0.225 0.12 0.352 0.108s0.244-0.075 0.325-0.174l21.236-25.63c0.169-0.204 0.14-0.506-0.064-0.675l0-0z"></path>
</symbol>
<symbol id="icon-vision_profile" viewBox="0 0 34 32">
<path d="M31.352 16.896c0.296-0.561 0.296-1.231 0-1.792-0.014-0.028-4.605-8.704-14.498-8.704s-14.484 8.676-14.498 8.704c-0.296 0.561-0.296 1.231 0 1.792 0.014 0.028 4.605 8.704 14.498 8.704s14.484-8.676 14.498-8.704zM30.22 16.299c0 0-4.232 8.021-13.366 8.021s-13.366-8.021-13.366-8.021c-0.099-0.187-0.099-0.411 0-0.598 0 0 4.232-8.021 13.366-8.021s13.366 8.021 13.366 8.021c0.099 0.187 0.099 0.411 0 0.598z"></path>
<path d="M16.854 10.24c-3.179 0-5.76 2.581-5.76 5.76s2.581 5.76 5.76 5.76c3.179 0 5.76-2.581 5.76-5.76s-2.581-5.76-5.76-5.76zM16.854 11.52c2.472 0 4.48 2.008 4.48 4.48s-2.008 4.48-4.48 4.48c-2.472 0-4.48-2.008-4.48-4.48s2.008-4.48 4.48-4.48z"></path>
</symbol>
<symbol id="icon-whitecursor" viewBox="0 0 21 32">
<path d="M4.638 0.005c-0.38 0.043-0.683 0.336-0.74 0.714l-3.887 24.697c-0.048 0.308 0.077 0.618 0.326 0.806s0.581 0.224 0.864 0.094l5.302-2.551 2.036 7.601c0.056 0.218 0.196 0.404 0.39 0.518s0.424 0.146 0.642 0.090l6.531-1.758c0.218-0.056 0.404-0.196 0.518-0.39s0.147-0.424 0.091-0.642l-2.036-7.602 5.844-0.45c0.313-0.024 0.588-0.219 0.713-0.508s0.080-0.622-0.118-0.867l-15.72-19.435c-0.18-0.228-0.465-0.348-0.754-0.317l-0-0zM5.285 2.86l13.499 16.712-5.262 0.397c-0.253 0.018-0.485 0.149-0.63 0.357s-0.191 0.469-0.123 0.714l2.076 7.761-4.905 1.309-2.076-7.761c-0.066-0.241-0.235-0.441-0.462-0.545s-0.488-0.104-0.714 0.003l-4.76 2.274 3.358-21.22z"></path>
</symbol>
<symbol id="icon-zoom" viewBox="0 0 32 32">
<path d="M31.296 31.296c0.389-0.388 0.389-1.018 0-1.407l-10.665-10.665c-0.391-0.391-0.414-1.013-0.096-1.466 1.287-1.833 2.044-4.064 2.044-6.469 0-6.225-5.065-11.289-11.29-11.289s-11.289 5.065-11.289 11.289c0 6.225 5.065 11.29 11.289 11.29 2.405 0 4.636-0.757 6.469-2.044 0.453-0.318 1.075-0.295 1.466 0.096l10.665 10.665c0.389 0.389 1.019 0.389 1.407 0zM1.99 11.289c0-5.127 4.171-9.299 9.299-9.299s9.299 4.171 9.299 9.299c0 5.128-4.172 9.299-9.299 9.299s-9.299-4.172-9.299-9.299z"></path>
<path d="M12.284 7.868c0-0.55-0.446-0.995-0.995-0.995s-0.995 0.446-0.995 0.995v1.359c0 0.589-0.478 1.067-1.067 1.067h-1.359c-0.55 0-0.995 0.446-0.995 0.995s0.446 0.995 0.995 0.995h1.359c0.589 0 1.067 0.478 1.067 1.067v1.359c0 0.55 0.446 0.995 0.995 0.995s0.995-0.446 0.995-0.995v-1.359c0-0.589 0.478-1.067 1.067-1.067h1.359c0.55 0 0.995-0.446 0.995-0.995s-0.446-0.995-0.995-0.995h-1.359c-0.589 0-1.067-0.478-1.067-1.067v-1.359z"></path>
</symbol>
</defs>
</svg>
