<svg aria-hidden="true" style="position: absolute; width: 0; height: 0; overflow: hidden;" version="1.1" xmlns="http://www.w3.org/2000/svg" xmlns:xlink="http://www.w3.org/1999/xlink">
<defs>
<symbol id="icon-accessibility" viewBox="0 0 32 32">
<path fill="#fff" style="fill: var(--color1, #fff)" d="M17.974 6.194c1.091 1.091 1.091 2.86 0 3.951s-2.86 1.091-3.951 0c-1.091-1.091-1.091-2.86 0-3.951s2.86-1.091 3.951 0z"></path>
<path fill="#fff" style="fill: var(--color1, #fff)" d="M24.188 11.317c-2.463 0.477-5.295 0.75-8.19 0.75s-5.728-0.273-8.472-0.795l0.281 0.044c-0.048-0.010-0.103-0.016-0.16-0.016-0.407 0-0.746 0.294-0.815 0.681l-0.001 0.005c-0.009 0.047-0.015 0.1-0.015 0.155 0 0.408 0.293 0.747 0.68 0.819l0.005 0.001c1.572 0.307 3.475 0.549 5.409 0.674l0.137 0.007c0.694 0.050 1.239 0.625 1.239 1.328 0 0.057-0.004 0.112-0.010 0.167l0.001-0.007-0.163 1.397c-0.274 2.389-0.81 4.566-1.586 6.625l0.063-0.189-1.016 2.717c-0.034 0.087-0.053 0.189-0.053 0.295 0 0.463 0.375 0.838 0.838 0.838 0.357 0 0.662-0.223 0.783-0.538l0.002-0.006 0.249-0.508c0.813-1.732 1.57-3.505 2.26-5.298 0.056-0.142 0.192-0.24 0.35-0.24s0.294 0.098 0.35 0.238l0.001 0.003c0.691 1.793 1.448 3.556 2.26 5.303l0.259 0.554c0.128 0.297 0.415 0.502 0.751 0.508h0.001c0.104-0.001 0.204-0.021 0.295-0.058l-0.005 0.002c0.329-0.116 0.56-0.425 0.56-0.787 0-0.104-0.019-0.204-0.054-0.296l0.002 0.006-1.016-2.717c-0.711-1.869-1.247-4.046-1.511-6.305l-0.012-0.13-0.157-1.407c-0.006-0.047-0.009-0.101-0.009-0.155 0-0.701 0.545-1.276 1.234-1.323l0.004-0c2.056-0.131 3.943-0.369 5.792-0.716l-0.291 0.045c0.412-0.072 0.722-0.422 0.731-0.847l0-0.001c0-0 0-0 0-0.001 0-0.463-0.375-0.838-0.838-0.838-0.058 0-0.114 0.006-0.168 0.017l0.005-0.001z"></path>
<path fill="#fff" opacity="0.85" style="fill: var(--color1, #fff)" d="M16 0c-8.837 0-16 7.163-16 16s7.163 16 16 16c8.837 0 16-7.163 16-16v0c-0.009-8.833-7.167-15.991-15.999-16h-0.001zM16 30.476c-7.995 0-14.476-6.481-14.476-14.476s6.481-14.476 14.476-14.476c7.995 0 14.476 6.481 14.476 14.476v0c-0.012 7.99-6.486 14.465-14.475 14.476h-0.001z"></path>
</symbol>
<symbol id="icon-xmark-solid" viewBox="0 0 20 32">
<path d="M19.413 9.412c0.781-0.781 0.781-2.050 0-2.831s-2.050-0.781-2.831 0l-6.581 6.587-6.588-6.581c-0.781-0.781-2.050-0.781-2.831 0s-0.781 2.050 0 2.831l6.588 6.581-6.581 6.587c-0.781 0.781-0.781 2.050 0 2.831s2.050 0.781 2.831 0l6.581-6.588 6.587 6.581c0.781 0.781 2.050 0.781 2.831 0s0.781-2.050 0-2.831l-6.588-6.581 6.581-6.588z"></path>
</symbol>
</defs>
</svg>
